<svg width="150" height="150" viewBox="0 0 430 430" fill="none" xmlns="http://www.w3.org/2000/svg">
<path d="M358.201 264.342V180.642V180.542L228.301 215.142L215.701 218.542L215.801 284.442L215.901 395.642C216.201 395.642 216.501 395.642 216.701 395.542L356.201 352.342C357.501 351.942 358.301 350.842 358.301 349.442L358.201 264.342Z" fill="#caff33"/>
<path d="M215.8 395.642C215.6 395.642 215.3 395.642 215.1 395.542H215L74.8004 353.242C74.7004 353.242 74.7004 353.142 74.6004 353.142C74.5004 353.142 74.4004 353.042 74.4004 353.042C74.3004 352.942 74.1004 352.942 74.0004 352.842C73.9004 352.742 73.8004 352.742 73.7004 352.642L73.6004 352.542L73.5004 352.442L73.4004 352.242C73.4004 352.242 73.4004 352.142 73.3004 352.142C73.2004 352.042 73.2004 351.942 73.1004 351.842V351.742C73.1004 351.642 73.0004 351.642 73.0004 351.542C73.0004 351.542 73.0004 351.542 73.0004 351.442C73.0004 351.442 73.0004 351.442 73.0004 351.342C73.0004 351.342 73.0004 351.342 73.0004 351.242C73.0004 351.142 73.0004 351.142 73.0004 351.042C73.0004 350.942 73.0004 350.942 73.0004 350.942C73.0004 350.942 73.0004 350.942 73.0004 350.842C73.0004 350.742 73.0004 350.542 73.0004 350.442L72.3004 263.642L71.9004 181.442V181.342L215.6 218.542L215.7 284.442L215.8 395.642Z" fill="#caff33"/>
<g style="mix-blend-mode:multiply">
<path d="M215.8 395.642C215.6 395.642 215.3 395.642 215.1 395.542H215L74.8004 353.242C74.7004 353.242 74.7004 353.142 74.6004 353.142C74.5004 353.142 74.4004 353.042 74.4004 353.042C74.3004 352.942 74.1004 352.942 74.0004 352.842C73.9004 352.742 73.8004 352.742 73.7004 352.642L73.6004 352.542L73.5004 352.442L73.4004 352.242V352.142C73.3004 352.042 73.3004 351.942 73.2004 351.842V351.742C73.2004 351.642 73.1004 351.642 73.1004 351.542C73.1004 351.542 73.1004 351.542 73.1004 351.442C73.1004 351.442 73.1004 351.442 73.1004 351.342C73.1004 351.342 73.1004 351.342 73.1004 351.242C73.1004 351.142 73.1004 351.142 73.1004 351.042C73.1004 350.942 73.1004 350.942 73.1004 350.942C73.1004 350.942 73.1004 350.942 73.1004 350.842C73.1004 350.742 73.1004 350.542 73.1004 350.442L72.3004 263.642L71.9004 181.442V181.342L215.6 218.542L215.7 284.442L215.8 395.642Z" fill="#caff33"/>
</g>
<path d="M380.5 132.942L380.1 172.542C380.1 172.642 380.1 172.742 380.1 172.842C380 174.042 379.1 175.142 377.9 175.442L358.2 180.742L215.7 218.642L71.9004 181.442L52.1004 176.342C50.8004 176.042 49.9004 174.842 49.8004 173.442L49.4004 132.942C49.4004 132.142 49.8004 131.442 50.3004 130.942L214.9 173.442L379.6 130.942C380 131.442 380.3 131.942 380.4 132.642C380.5 132.742 380.5 132.842 380.5 132.942Z" fill="#caff33"/>
<path d="M379.701 130.942C379.301 130.542 378.901 130.242 378.401 130.142L215.801 88.1419C215.301 88.0419 214.801 88.0419 214.301 88.1419L51.6008 130.142C51.1008 130.242 50.6008 130.542 50.3008 130.942L214.901 173.442L379.701 130.942Z" fill="#caff33"/>
<g style="mix-blend-mode:multiply" opacity="0.3">
<path d="M379.7 130.942L215 173.442L50.3004 130.942C49.8004 131.442 49.5004 132.142 49.4004 132.942L49.8004 173.442C49.8004 174.842 50.7004 175.942 52.0004 176.342L71.8004 181.442L215.5 218.542L228.1 215.142L358.1 180.642L377.8 175.442C379 175.142 379.9 174.042 380 172.842C380 172.742 380 172.642 380 172.542L380.4 132.642C380.4 131.942 380.1 131.342 379.7 130.942Z" fill="#caff33"/>
</g>
<g style="mix-blend-mode:multiply" opacity="0.5">
<path d="M215.6 218.542L71.9004 181.442L52.1004 176.342C50.8004 176.042 49.9004 174.842 49.8004 173.442L49.4004 132.942C49.4004 132.142 49.8004 131.442 50.3004 130.942L214.9 173.442L215.6 218.542Z" fill="#caff33"/>
</g>
<path d="M380.5 130.642L380.1 174.742L358.2 180.542L215.7 218.442L71.9004 181.442L49.9004 175.742L49.4004 130.742M214.9 87.9419L49.4004 130.742L214.9 173.442L380.6 130.642L214.9 87.9419Z" stroke="#000" stroke-width="7" stroke-miterlimit="3.6" stroke-linecap="round" stroke-linejoin="round"/>
<path d="M215.6 218.542L215.7 284.442L215.8 395.742M358.2 264.342V180.642V180.542L215.7 218.542L71.9004 181.342V181.442L72.3004 263.642L72.7004 352.642L215.8 395.842L358.2 351.642V264.342Z" stroke="#000" stroke-width="7" stroke-miterlimit="3.6" stroke-linecap="round" stroke-linejoin="round"/>
<path d="M215.4 122.742L191 130.642L128.5 151.042L123.6 152.642L123.5 194.442V194.942L128.3 196.342L136.8 198.742L136.6 281.742L136.4 371.642M215.4 122.842L216 123.042L216.1 123.142L239.5 130.742L301.8 151.042L307.1 152.742L307 193.642L302.6 195.042L300.9 195.642L293.6 197.942L293.8 276.442L294.1 371.442" stroke="#92140C" stroke-width="7" stroke-miterlimit="3.6" stroke-linecap="round" stroke-linejoin="round"/>
<path d="M215.799 121.142C2.09924 91.5419 170.699 -57.8581 217.999 123.342" stroke="#92140C" stroke-width="7" stroke-miterlimit="3.6" stroke-linecap="round"/>
<path d="M218.1 121.142C429.2 91.5419 262.7 -57.8581 215.9 123.342" stroke="#92140C" stroke-width="7" stroke-miterlimit="3.6" stroke-linecap="round"/>
</svg>
